<svg width="43" height="43" viewBox="0 0 43 43" fill="none" xmlns="http://www.w3.org/2000/svg">
<path d="M12.7852 19.4908L18.231 18.3818L19.8648 15.6094L21.4986 12.8369L24.7661 18.3818L30.212 19.4908L25.8553 23.9267L26.9445 29.4716L21.4986 26.6992L16.0527 29.4716L17.1419 23.9267L12.7852 19.4908Z" fill="#FFEF9C"/>
<path fill-rule="evenodd" clip-rule="evenodd" d="M18.2314 18.3816L21.4989 12.8367L24.7664 18.3816L30.2123 19.4906L25.8556 23.9265L26.9448 29.4714L21.4989 26.699L16.053 29.4714L17.1422 23.9265L12.7855 19.4906L18.2314 18.3816ZM15.4266 24.4407L11.6552 20.6007C11.2483 20.1864 11.1006 19.5826 11.2705 19.0273C11.4403 18.472 11.9003 18.0541 12.4693 17.9382L17.2244 16.9699L20.134 12.0324C20.4188 11.5491 20.9379 11.2524 21.4989 11.2524C22.0599 11.2524 22.579 11.5491 22.8638 12.0324L25.7734 16.9699L30.5284 17.9382C31.0975 18.0541 31.5575 18.472 31.7273 19.0273C31.8971 19.5826 31.7495 20.1864 31.3426 20.6007L27.5711 24.4407L28.4993 29.1661C28.6162 29.7609 28.3834 30.3702 27.8997 30.7356C27.416 31.1009 26.7662 31.1583 26.226 30.8833L21.4989 28.4767L16.7718 30.8833C16.2316 31.1583 15.5818 31.1009 15.0981 30.7356C14.6144 30.3702 14.3816 29.7609 14.4985 29.1661L15.4266 24.4407Z" fill="#E89B05"/>
</svg>
